<svg width="16" height="16" viewBox="0 0 16 16" fill="none" xmlns="http://www.w3.org/2000/svg">
  <g>
    <path fill-rule="evenodd" clip-rule="evenodd" d="M1.25247 2.58579C1.62755 2.21071 2.13625 2 2.66669 2H7.33335C7.70154 2 8.00002 2.29848 8.00002 2.66667C8.00002 3.03486 7.70154 3.33333 7.33335 3.33333H2.66669C2.48988 3.33333 2.32031 3.40357 2.19528 3.5286C2.07026 3.65362 2.00002 3.82319 2.00002 4V13.3333C2.00002 13.5101 2.07026 13.6797 2.19528 13.8047C2.32031 13.9298 2.48988 14 2.66669 14H12C12.1768 14 12.3464 13.9298 12.4714 13.8047C12.5964 13.6797 12.6667 13.5101 12.6667 13.3333V8.66667C12.6667 8.29848 12.9652 8 13.3334 8C13.7015 8 14 8.29848 14 8.66667V13.3333C14 13.8638 13.7893 14.3725 13.4142 14.7475C13.0392 15.1226 12.5305 15.3333 12 15.3333H2.66669C2.13625 15.3333 1.62755 15.1226 1.25247 14.7475C0.877401 14.3725 0.666687 13.8638 0.666687 13.3333V4C0.666687 3.46957 0.877401 2.96086 1.25247 2.58579Z" fill="#0079FF"/>
    <path fill-rule="evenodd" clip-rule="evenodd" d="M13.3333 1.91912C13.135 1.91912 12.9449 1.99788 12.8047 2.13807L6.60195 8.34083L6.24955 9.75042L7.65914 9.39802L13.8619 3.19526C14.0021 3.05507 14.0809 2.86493 14.0809 2.66667C14.0809 2.46841 14.0021 2.27826 13.8619 2.13807C13.7217 1.99788 13.5316 1.91912 13.3333 1.91912ZM11.8619 1.19526C12.2521 0.805021 12.7814 0.585786 13.3333 0.585786C13.8852 0.585786 14.4145 0.805021 14.8047 1.19526C15.195 1.5855 15.4142 2.11478 15.4142 2.66667C15.4142 3.21855 15.195 3.74783 14.8047 4.13807L8.47138 10.4714C8.38594 10.5568 8.27889 10.6175 8.16166 10.6468L5.495 11.3134C5.26781 11.3702 5.02749 11.3037 4.8619 11.1381C4.69632 10.9725 4.62975 10.7322 4.68655 10.505L5.35321 7.83831C5.38252 7.72109 5.44313 7.61403 5.52857 7.5286L11.8619 1.19526Z" fill="#0079FF"/>
  </g>
</svg>
